<svg width="1692" height="746" viewBox="0 0 1692 746" fill="none" xmlns="http://www.w3.org/2000/svg">
<path d="M1603.52 119.773C1567.01 103.912 1536.04 91.3315 1541.31 70.5935C1541.61 69.4055 1549.61 52.6075 1550.1 51.4715C1559.2 30.5185 1597.88 27.1305 1636.48 43.8995C1675.08 60.6685 1699 91.2495 1689.9 112.199C1688.83 114.67 1681.76 131.864 1679.91 133.843C1666.09 148.641 1637.57 134.566 1603.52 119.773Z" fill="#F1CF5F"/>
<path d="M1679.91 133.843C1681.76 131.865 1688.83 114.671 1689.9 112.2C1698.12 93.2712 1679.39 66.4843 1647.23 49.1223C1636.15 47.8321 1624.92 49.1995 1614.47 53.1113C1590.47 62.0273 1574.32 82.3963 1570.61 104.887C1580.28 109.764 1591.6 114.593 1603.52 119.771C1637.57 134.562 1666.1 148.639 1679.91 133.843Z" fill="#D9981E"/>
<path d="M1594.28 139.873C1555.68 123.102 1531.76 92.5226 1540.86 71.5726C1549.96 50.6226 1588.63 47.2296 1627.24 63.9996C1665.84 80.7696 1689.76 111.352 1680.66 132.3C1671.56 153.248 1632.88 156.645 1594.28 139.873Z" fill="#F1CF5F"/>
<path opacity="0.5" d="M1601.13 73.6956C1639.74 90.4646 1663.65 121.047 1654.55 141.996C1653.17 145.131 1651.13 147.93 1648.56 150.205C1664.21 148.842 1676.18 142.756 1680.73 132.27C1689.83 111.321 1665.91 80.7386 1627.31 63.9696C1594.48 49.7086 1561.62 50.0336 1546.92 63.3296C1562.54 61.9696 1581.85 65.3166 1601.13 73.6956Z" fill="#E4AE35"/>
<path d="M290.215 378.142C326.676 405.957 357.843 428.573 346.222 450.312C345.557 451.557 331.981 468.14 331.122 469.274C315.161 490.198 270.971 483.318 232.422 453.908C193.873 424.498 175.559 383.697 191.522 362.776C193.404 360.309 206.052 343.028 208.664 341.325C228.191 328.587 256.211 352.201 290.215 378.142Z" fill="#D9981E"/>
<path d="M208.654 341.326C206.042 343.026 193.394 360.31 191.512 362.777C177.092 381.677 190.653 416.808 221.836 445.102C233.873 449.603 246.81 451.171 259.574 449.677C288.874 446.328 312.566 428.003 322.912 403.868C313.443 395.746 302.117 387.222 290.212 378.141C256.209 352.201 228.189 328.588 208.654 341.326Z" fill="#E4AE35"/>
<path d="M306.098 358.207C344.648 387.615 362.962 428.418 346.998 449.338C331.034 470.258 286.847 463.382 248.298 433.973C209.749 404.564 191.435 363.763 207.398 342.841C223.361 321.919 267.548 328.798 306.098 358.207Z" fill="#F1CF5F"/>
<path d="M280.171 430.337C241.62 400.929 223.307 360.125 239.271 339.204C241.683 336.08 244.739 333.511 248.233 331.673C230.354 328.881 215.299 332.389 207.312 342.858C191.351 363.779 209.664 404.583 248.212 433.99C280.993 458.997 317.84 467.702 337.953 456.89C320.1 454.099 299.43 445.03 280.171 430.337Z" fill="#D9981E"/>
<path d="M155.991 431.603C138.415 421.734 118.307 417.298 98.2092 418.856C78.1118 420.415 58.9279 427.898 43.0836 440.36C27.2392 452.822 15.4461 469.702 9.19548 488.866C2.94489 508.03 2.5176 528.618 7.96764 548.025C13.4177 567.432 24.5003 584.787 39.8139 597.895C55.1275 611.004 73.9844 619.276 93.9998 621.668C114.015 624.059 134.29 620.461 152.261 611.329C170.232 602.197 185.091 587.941 194.959 570.364C208.191 546.796 211.519 518.936 204.211 492.914C196.904 466.892 179.558 444.838 155.991 431.603Z" fill="#DBB39A"/>
<path opacity="0.7" d="M163.334 549.2C151.04 571.092 131.098 587.676 107.331 595.772C83.564 603.869 57.645 602.908 34.543 593.074C45.2252 603.599 58.0984 611.637 72.2443 616.615C86.3903 621.594 101.461 623.389 116.38 621.873C131.3 620.357 145.701 615.568 158.557 607.847C171.413 600.126 182.406 589.663 190.754 577.204C199.101 564.746 204.596 550.599 206.847 535.773C209.099 520.946 208.051 505.806 203.778 491.431C199.505 477.056 192.113 463.801 182.129 452.612C172.145 441.422 159.814 432.574 146.017 426.698C161.933 442.395 172.249 462.888 175.378 485.022C178.507 507.157 174.275 529.706 163.334 549.2Z" fill="#4C3451"/>
<path d="M163.343 418.945C145.767 409.076 125.659 404.641 105.562 406.2C85.4655 407.759 66.2823 415.243 50.4386 427.705C34.595 440.166 22.8025 457.047 16.5523 476.21C10.3022 495.374 9.87518 515.961 15.3252 535.368C20.7753 554.774 31.8577 572.129 47.1709 585.237C62.4842 598.345 81.3405 606.618 101.355 609.009C121.37 611.4 141.645 607.803 159.615 598.671C177.586 589.54 192.445 575.285 202.313 557.709C208.867 546.038 213.057 533.192 214.645 519.902C216.233 506.613 215.188 493.141 211.569 480.255C207.951 467.369 201.829 455.323 193.554 444.803C185.28 434.283 175.014 425.497 163.343 418.945Z" fill="#C69181"/>
<path d="M154.246 439.442C141.234 432.135 126.348 428.85 111.469 430.004C96.5896 431.157 82.3868 436.696 70.6562 445.922C58.9256 455.147 50.1941 467.644 45.5659 481.832C40.9377 496.019 40.6207 511.261 44.6549 525.629C48.6892 539.997 56.8934 552.846 68.2303 562.551C79.5671 572.256 93.5273 578.382 108.345 580.153C123.164 581.924 138.174 579.261 151.479 572.501C164.783 565.741 175.785 555.187 183.091 542.174C192.889 524.726 195.354 504.101 189.945 484.835C184.535 465.569 171.694 449.241 154.246 439.442Z" fill="#422F49"/>
<path d="M151.15 442.177C138.449 435.044 123.918 431.838 109.395 432.965C94.8714 434.091 81.0083 439.498 69.5585 448.503C58.1087 457.508 49.5863 469.707 45.0692 483.555C40.552 497.404 40.2429 512.281 44.181 526.305C48.1191 540.33 56.1275 552.871 67.1935 562.344C78.2594 571.817 91.8859 577.796 106.35 579.524C120.814 581.252 135.465 578.653 148.452 572.054C161.438 565.456 172.176 555.154 179.308 542.453C184.043 534.019 187.071 524.736 188.219 515.133C189.367 505.53 188.612 495.794 185.997 486.483C183.382 477.171 178.959 468.466 172.98 460.864C167.001 453.262 159.583 446.912 151.15 442.177Z" fill="#F2E2D6"/>
<path d="M172.901 490.694C166.42 502.244 156.944 511.832 145.471 518.448C133.998 525.063 120.952 528.462 107.709 528.286C94.4664 528.109 81.5162 524.364 70.2233 517.445C58.9303 510.526 49.7126 500.689 43.5415 488.971C40.7204 500.552 40.7526 512.645 43.6354 524.211C46.5183 535.777 52.1655 546.471 60.0922 555.373C68.0188 564.276 77.988 571.121 89.1434 575.322C100.299 579.522 112.307 580.952 124.137 579.488C135.967 578.024 147.264 573.711 157.06 566.919C166.855 560.126 174.855 551.058 180.373 540.492C185.891 529.926 188.762 518.178 188.739 506.258C188.716 494.338 185.8 482.602 180.241 472.058C178.655 478.575 176.186 484.845 172.901 490.694Z" fill="#D9B39B"/>
<path d="M75.2301 531.968L85.2831 516.807L69.298 506.282L58.748 522.302L74.664 532.783L75.2301 531.968Z" fill="#4C3451"/>
<path d="M158.366 525.503V525.509L142.683 515.184L124.583 542.684L96.7519 524.357L86.1699 540.322V540.353L129.77 569.053L158.428 525.528L158.366 525.503Z" fill="#4C3451"/>
<path d="M149.151 480.031L105.507 451.292L77.1074 494.43L93.1324 504.98L111.181 477.763L138.709 495.89L149.152 480.029L149.151 480.031Z" fill="#4C3451"/>
<path d="M160.768 487.681L160.781 487.691L150.339 503.552L165.753 513.701L166.083 513.892L176.514 498.049L160.768 487.681Z" fill="#4C3451"/>
<path d="M114.828 496.522L103.979 512.978L120.435 523.827L131.284 507.372L114.828 496.522Z" fill="#4C3451"/>
<path d="M76.5484 527.566L86.6014 512.405L70.6154 501.88L60.0664 517.9L75.9824 528.38L76.5484 527.566Z" fill="#C69181"/>
<path d="M159.687 521.102V521.108L144.004 510.782L125.899 538.282L98.0722 519.959L87.4902 535.924V535.955L131.09 564.655L159.749 521.13L159.687 521.102Z" fill="#C69181"/>
<path d="M150.47 475.63L106.827 446.892L78.4209 490.028L94.4459 500.581L112.495 473.363L140.024 491.489L150.467 475.628L150.47 475.63Z" fill="#C69181"/>
<path d="M162.087 483.28L162.102 483.292L151.659 499.151L167.072 509.301L167.402 509.491L177.833 493.65L162.087 483.28Z" fill="#C69181"/>
<path d="M116.148 492.121L105.299 508.578L121.754 519.426L132.604 502.97L116.148 492.121Z" fill="#C69181"/>
<path d="M1487.76 374.484C1474.12 350.673 1488.47 317.475 1519.82 300.335C1551.18 283.195 1587.66 288.604 1601.3 312.416C1602.96 315.305 1610.89 328.127 1610.89 328.127C1610.89 328.127 1596.8 371.504 1569.24 386.566C1540.1 402.5 1499.7 392.286 1499.7 392.286C1499.7 392.286 1488.72 376.16 1487.76 374.484Z" fill="#E09F25"/>
<path opacity="0.5" d="M1551.32 309.069C1551.31 302.68 1550.2 296.342 1548.04 290.332C1538.13 291.692 1528.56 294.863 1519.81 299.687C1490.78 315.554 1476.34 345.176 1485.18 368.38C1485.99 368.408 1486.8 368.437 1487.61 368.436C1522.82 368.408 1551.34 341.829 1551.32 309.069Z" fill="#F1CF5F"/>
<path d="M1495.98 387.608C1481.39 362.143 1494.97 327.608 1526.33 310.465C1557.68 293.322 1594.93 300.074 1609.53 325.54C1624.13 351.006 1610.53 385.54 1579.18 402.683C1547.83 419.826 1510.57 413.074 1495.98 387.608Z" fill="#FAD665"/>
<path d="M1509.06 383.528C1498.08 364.357 1509.33 337.795 1534.19 324.201C1559.06 310.607 1588.13 315.128 1599.12 334.301C1610.1 353.474 1598.85 380.036 1573.98 393.629C1549.12 407.222 1520.05 402.701 1509.06 383.528Z" fill="#E4AE35"/>
<path d="M1572.54 342.689C1582.24 359.615 1572.3 383.064 1550.35 395.065C1545.67 397.633 1540.65 399.534 1535.45 400.713C1547.4 402.798 1561.25 400.602 1573.99 393.632C1598.86 380.038 1610.11 353.476 1599.12 334.305C1588.13 315.134 1559.07 310.612 1534.2 324.205C1531.58 325.641 1529.06 327.253 1526.66 329.031C1545.45 323.518 1564.49 328.647 1572.54 342.689Z" fill="#D9981E"/>
<path opacity="0.9" d="M226.943 638.413C229.254 634.937 252.416 646.97 278.677 665.285C304.938 683.6 324.356 701.267 322.044 704.742C319.732 708.217 296.57 696.186 270.308 677.868C244.046 659.55 224.633 641.888 226.943 638.413Z" fill="#4D61AC"/>
<path d="M226.942 638.414L217.26 655.005C228.088 667.074 243.75 679.285 261.531 691.687C280.039 704.595 297.977 715.952 312.396 721.63L322.042 704.738C320.649 705.575 283.184 683.605 261.162 667.338C248.365 657.881 234.509 649.75 226.942 638.414Z" fill="#98B7D6"/>
<path d="M299.642 692.638C287.291 685.192 272.266 675.538 261.167 667.338C248.367 657.88 234.511 649.749 226.945 638.413L217.263 655.005C227.979 666.949 243.429 679.03 260.981 691.299C276.229 695.074 289.832 695.558 299.642 692.638Z" fill="#7192D1"/>
<path opacity="0.9" d="M1467.37 254.338C1463.29 251.885 1474.88 225.126 1493.27 194.572C1511.65 164.018 1529.86 141.234 1533.94 143.688C1538.01 146.142 1526.42 172.9 1508.04 203.457C1489.65 234.014 1471.45 256.79 1467.37 254.338Z" fill="#4D61AC"/>
<path d="M1467.37 254.339L1486.74 264.522C1499.37 251.716 1511.78 233.433 1524.22 212.745C1537.18 191.211 1548.44 170.395 1553.62 153.82L1533.93 143.688C1534.98 145.225 1513.42 188.622 1496.98 214.287C1487.43 229.205 1479.45 245.255 1467.37 254.339Z" fill="#98B7D6"/>
<path d="M1522.19 169.593C1514.86 183.908 1505.27 201.35 1496.99 214.287C1487.43 229.205 1479.45 245.254 1467.37 254.338L1486.74 264.522C1499.24 251.848 1511.52 233.811 1523.84 213.389C1526.82 195.963 1526.26 180.553 1522.19 169.593Z" fill="#7192D1"/>
<path d="M401.696 188.472C417.204 173.194 427.832 153.66 432.238 132.341C436.643 111.021 434.628 88.8746 426.446 68.7009C418.264 48.5273 404.284 31.2328 386.273 19.0046C368.263 6.77647 347.03 0.163846 325.261 0.00300545C303.492 -0.157835 282.164 6.14033 263.975 18.101C245.785 30.0617 231.551 47.1477 223.072 67.1983C214.593 87.2489 212.251 109.364 216.341 130.745C220.431 152.127 230.769 171.816 246.049 187.322C266.538 208.113 294.446 219.914 323.635 220.13C352.824 220.345 380.903 208.958 401.696 188.472Z" fill="#5E7ECF"/>
<path d="M277.951 163.029C258.921 143.713 247.691 118.052 246.412 90.9667C245.134 63.8812 253.899 37.277 271.025 16.2544C256.9 24.1821 244.7 35.1291 235.293 48.3145C225.886 61.5 219.505 76.5989 216.605 92.5341C213.705 108.469 214.357 124.848 218.515 140.502C222.674 156.157 230.235 170.7 240.661 183.096C251.087 195.491 264.119 205.433 278.829 212.213C293.539 218.992 309.564 222.441 325.761 222.315C341.957 222.188 357.926 218.489 372.529 211.481C387.131 204.473 400.007 194.328 410.238 181.771C389.182 193.58 364.829 198.142 340.927 194.756C317.025 191.37 294.897 180.222 277.951 163.029Z" fill="#4A58A0"/>
<path d="M398.626 197.163C414.132 181.885 424.76 162.351 429.164 141.033C433.569 119.714 431.553 97.5682 423.371 77.3955C415.189 57.2228 401.209 39.9292 383.199 27.7016C365.189 15.4741 343.958 8.86173 322.19 8.70076C300.421 8.5398 279.094 14.8374 260.905 26.7973C242.716 38.7572 228.482 55.8421 220.003 75.8917C211.524 95.9412 209.181 118.055 213.27 139.436C217.358 160.817 227.696 180.506 242.974 196.012C253.118 206.309 265.192 214.506 278.504 220.137C291.817 225.767 306.108 228.72 320.562 228.827C335.016 228.934 349.349 226.192 362.743 220.76C376.138 215.327 388.331 207.309 398.626 197.163Z" fill="#7799E5"/>
<path d="M380.16 170.888C391.366 159.848 399.047 145.732 402.231 130.327C405.415 114.922 403.959 98.9183 398.047 84.3403C392.136 69.7624 382.034 57.2648 369.02 48.428C356.006 39.5912 340.663 34.8121 324.933 34.6951C309.202 34.578 293.79 39.1282 280.646 47.7704C267.501 56.4125 257.215 68.7584 251.087 83.2467C244.959 97.735 243.266 113.715 246.22 129.166C249.174 144.617 256.644 158.845 267.685 170.051C282.489 185.076 302.656 193.605 323.749 193.762C344.842 193.919 365.133 185.691 380.16 170.888Z" fill="#435CA6"/>
<path d="M377.198 175.422C388.404 164.381 396.085 150.266 399.269 134.86C402.453 119.454 400.997 103.45 395.085 88.8721C389.173 74.2939 379.071 61.7961 366.057 52.9592C353.042 44.1223 337.699 39.3432 321.968 39.2263C306.237 39.1094 290.825 43.6599 277.68 52.3023C264.536 60.9448 254.249 73.291 248.121 87.7798C241.993 102.269 240.3 118.249 243.254 133.7C246.209 149.152 253.679 163.38 264.72 174.586C272.05 182.026 280.774 187.95 290.394 192.019C300.014 196.088 310.341 198.222 320.786 198.3C331.23 198.378 341.588 196.397 351.267 192.472C360.947 188.546 369.758 182.753 377.198 175.422Z" fill="#E3F1F6"/>
<path d="M266.176 118.108C275.593 108.916 287.133 102.191 299.773 98.5298C312.412 94.8684 325.76 94.384 338.632 97.1197C351.504 99.8553 363.501 105.726 373.56 114.212C383.618 122.697 391.426 133.534 396.29 145.761C400.774 133.631 402.24 120.593 400.564 107.77C398.887 94.9466 394.118 82.7235 386.667 72.1536C379.216 61.5837 369.306 52.9842 357.792 47.0961C346.278 41.2079 333.505 38.2078 320.574 38.3542C307.642 38.5007 294.941 41.7893 283.563 47.9366C272.185 54.084 262.473 62.9057 255.263 73.6416C248.053 84.3774 243.562 96.7055 242.176 109.563C240.79 122.421 242.552 135.423 247.309 147.448C251.332 136.384 257.778 126.359 266.176 118.108Z" fill="#ABCBF1"/>
<path d="M346.505 128.832C344.027 124.44 340.072 121.236 334.641 119.218L334.699 118.986C339.219 118.735 343.54 117.044 347.03 114.16C350.47 111.229 352.861 107.255 353.839 102.842C354.553 100.245 354.659 97.5188 354.148 94.8748C353.636 92.2308 352.522 89.7404 350.891 87.5976C348.452 84.3982 345.22 81.8917 341.515 80.3266C342.187 78.9109 342.712 77.4298 343.082 75.9066C344.561 69.8636 343.494 64.4066 340.709 63.7316C337.924 63.0566 334.457 67.3936 332.982 73.4316C332.655 74.7622 332.446 76.1192 332.36 77.4866L328.379 76.5136C328.932 75.2598 329.373 73.9594 329.697 72.6277C331.179 66.5867 330.116 61.1386 327.321 60.4546C324.526 59.7706 321.08 64.1156 319.598 70.1546C319.269 71.4848 319.061 72.842 318.978 74.2097L311.541 72.3907C311.409 72.3557 311.276 72.3186 311.141 72.2906C304.702 70.7116 298.992 71.3997 298.4 73.8277C297.808 76.2556 302.55 79.4966 308.994 81.0766L309.394 81.1656L293.417 146.499L293.017 146.392C286.574 144.821 280.867 145.509 280.275 147.933C279.683 150.357 284.425 153.605 290.869 155.183L291.269 155.276L298.706 157.096C298.153 158.35 297.709 159.65 297.381 160.981C295.908 167.022 296.972 172.47 299.76 173.156C302.548 173.842 306.008 169.492 307.486 163.456C307.812 162.125 308.02 160.767 308.109 159.4L312.09 160.376C311.534 161.628 311.091 162.927 310.766 164.258C309.294 170.299 310.355 175.747 313.144 176.43C315.933 177.113 319.392 172.767 320.868 166.73C321.237 165.235 321.454 163.707 321.517 162.169C326.612 162.614 331.73 161.624 336.292 159.312C342.452 156.164 346.399 151.044 348.135 143.954C349.531 138.254 348.988 133.213 346.505 128.832ZM343.205 102.258C342.065 106.924 339.658 110.164 335.984 111.978C332.309 113.791 327.815 114.05 322.501 112.754L312.56 110.324L319.107 83.5616L330.263 86.2876C340.858 88.8796 345.171 94.203 343.202 102.258H343.205ZM330.567 151.3C326.767 153.229 322.014 153.496 316.31 152.1L303.13 148.877L310.424 119.054L321.581 121.779C334.914 125.04 340.383 131.565 337.989 141.355C336.841 146.059 334.366 149.374 330.564 151.3H330.567Z" fill="#4A58A0"/>
<path d="M344.028 128.326C341.549 123.94 337.595 120.737 332.167 118.717L332.223 118.483C336.743 118.236 341.065 116.545 344.553 113.659C347.998 110.729 350.39 106.753 351.365 102.337C352.08 99.7402 352.186 97.0138 351.675 94.3698C351.164 91.7258 350.049 89.2354 348.418 87.0925C345.98 83.8932 342.747 81.3871 339.041 79.8225C339.714 78.4064 340.24 76.9245 340.609 75.4005C342.085 69.3585 341.023 63.9085 338.231 63.2285C335.439 62.5485 331.984 66.8885 330.509 72.9285C330.181 74.2592 329.972 75.6166 329.887 76.9845L325.907 76.0085C326.462 74.7561 326.903 73.4562 327.225 72.1245C328.706 66.0865 327.64 60.6345 324.853 59.9515C322.066 59.2685 318.604 63.6135 317.129 69.6515C316.802 70.9823 316.593 72.3392 316.503 73.7065L309.066 71.8895C308.934 71.8565 308.803 71.8235 308.666 71.7895C302.221 70.2145 296.518 70.9065 295.925 73.3305C295.332 75.7545 300.07 79.0015 306.514 80.5765C306.651 80.6145 306.784 80.6415 306.914 80.6705L290.934 146.005C290.802 145.969 290.671 145.934 290.534 145.899C284.09 144.324 278.385 145.014 277.793 147.438C277.201 149.862 281.942 153.109 288.388 154.684C288.519 154.72 288.653 154.748 288.788 154.784L296.227 156.603C295.673 157.855 295.233 159.154 294.91 160.485C293.43 166.528 294.494 171.976 297.281 172.661C300.068 173.346 303.528 168.998 305.005 162.956C305.334 161.626 305.543 160.27 305.63 158.903L309.612 159.876C309.059 161.129 308.617 162.429 308.292 163.76C306.814 169.802 307.876 175.254 310.665 175.935C313.454 176.616 316.915 172.273 318.389 166.235C318.759 164.739 318.977 163.211 319.041 161.672C324.136 162.115 329.254 161.127 333.818 158.818C339.979 155.671 343.926 150.55 345.66 143.455C347.053 137.749 346.509 132.706 344.028 128.326ZM340.728 101.755C339.591 106.421 337.185 109.662 333.511 111.478C329.837 113.293 325.342 113.551 320.027 112.253L310.077 109.823L316.621 83.0565L327.782 85.7855C338.379 88.3755 342.693 93.7002 340.724 101.76L340.728 101.755ZM328.092 150.798C324.292 152.731 319.539 152.998 313.834 151.598L300.655 148.376L307.955 118.547L319.108 121.274C332.441 124.54 337.912 131.067 335.519 140.854C334.364 145.552 331.887 148.866 328.088 150.798H328.092Z" fill="#5A7ED0"/>
<path d="M262.294 187.25C255.69 161.734 241.667 138.748 222 121.201C202.332 103.654 177.903 92.3335 151.801 88.6706C125.7 85.0078 99.098 89.1673 75.3604 100.623C51.6228 112.079 31.8155 130.317 18.4432 153.03C5.07091 175.743 -1.2657 201.912 0.234702 228.227C1.7351 254.541 11.0051 279.82 26.8725 300.866C42.7398 321.912 64.4918 337.78 89.3777 346.464C114.264 355.147 141.166 356.256 166.682 349.65C200.895 340.791 230.188 318.705 248.118 288.25C266.049 257.795 271.148 221.464 262.294 187.25Z" fill="#EC8386"/>
<path d="M158.012 300.656C126.229 308.881 92.5289 305.085 63.372 289.997C34.2152 274.909 11.6532 249.59 0.0115154 218.893C-0.246247 238.501 3.82622 257.925 11.9384 275.778C20.0506 293.631 32.0027 309.474 46.942 322.177C61.8813 334.88 79.4398 344.129 98.3649 349.265C117.29 354.402 137.115 355.298 156.427 351.892C175.738 348.485 194.06 340.858 210.085 329.556C226.11 318.254 239.444 303.555 249.135 286.507C258.826 269.459 264.635 250.482 266.148 230.931C267.662 211.38 264.842 191.736 257.891 173.399C257.494 202.627 247.504 230.914 229.458 253.908C211.411 276.901 186.308 293.327 158.012 300.656Z" fill="#96374E"/>
<path d="M275.539 178.408C268.934 152.893 254.91 129.91 235.243 112.364C215.575 94.8189 191.146 83.4998 165.045 79.8382C138.944 76.1767 112.343 80.3371 88.6071 91.7935C64.8707 103.25 45.0646 121.487 31.6933 144.2C18.322 166.913 11.9861 193.081 13.4867 219.395C14.9874 245.708 24.2573 270.986 40.1241 292.031C55.991 313.077 77.7421 328.944 102.627 337.628C127.512 346.311 154.413 347.421 179.928 340.815C196.871 336.43 212.783 328.751 226.757 318.216C240.731 307.681 252.494 294.496 261.372 279.415C270.25 264.334 276.071 247.652 278.502 230.321C280.933 212.99 279.926 195.35 275.539 178.408Z" fill="#C03F58"/>
<path d="M243.888 186.608C239.116 168.169 228.984 151.559 214.772 138.878C200.56 126.198 182.908 118.016 164.046 115.368C145.184 112.72 125.961 115.725 108.807 124.003C91.6536 132.28 77.3396 145.458 67.6754 161.871C58.0113 178.284 53.4312 197.193 54.5143 216.209C55.5973 235.225 62.2949 253.492 73.7601 268.702C85.2253 283.911 100.943 295.379 118.926 301.655C136.909 307.931 156.349 308.734 174.788 303.961C199.512 297.562 220.683 281.603 233.641 259.595C246.6 237.588 250.286 211.333 243.888 186.608Z" fill="#913449"/>
<path d="M235.854 188.091C231.082 169.653 220.949 153.043 206.737 140.363C192.526 127.683 174.873 119.502 156.011 116.855C137.15 114.207 117.927 117.213 100.773 125.49C83.6199 133.768 69.3063 146.946 59.6425 163.359C49.9787 179.772 45.3989 198.681 46.4821 217.697C47.5653 236.712 54.2629 254.98 65.728 270.189C77.1931 285.398 92.9107 296.865 110.893 303.141C128.876 309.418 148.316 310.22 166.754 305.448C178.997 302.28 190.496 296.731 200.595 289.118C210.693 281.506 219.193 271.979 225.61 261.081C232.026 250.183 236.234 238.129 237.991 225.605C239.749 213.081 239.023 200.334 235.854 188.091Z" fill="#EB9291"/>
<path d="M93.8424 248.822C90.0898 234.325 89.7695 219.154 92.9069 204.512C96.0443 189.87 102.553 176.162 111.916 164.476C121.278 152.79 133.237 143.448 146.842 137.193C160.447 130.938 175.324 127.942 190.289 128.443C177.596 121.206 163.422 116.954 148.841 116.007C134.26 115.061 119.655 117.445 106.132 122.98C92.6098 128.514 80.5239 137.053 70.7905 147.951C61.057 158.848 53.9313 171.818 49.9531 185.877C45.9748 199.936 45.2485 214.717 47.829 229.098C50.4095 243.48 56.2292 257.086 64.8472 268.885C73.4652 280.685 84.6555 290.368 97.5704 297.201C110.485 304.035 124.786 307.84 139.389 308.328C128.195 301.969 118.395 293.425 110.57 283.202C102.745 272.979 97.0566 261.287 93.8424 248.822Z" fill="#DA7577"/>
<path d="M192.501 176.453L197.418 160.588L132.118 175.388L66.8184 190.194L78.0974 202.385L192.501 176.453Z" fill="#532242"/>
<path d="M89.4795 214.695L112.286 239.345L157.758 288.498L177.589 224.542L187.535 192.465L89.4795 214.695ZM158.369 236.163L151.164 259.407L134.638 241.545L118.113 223.684L141.843 218.303L165.577 212.922L158.369 236.163Z" fill="#532242"/>
<path d="M193.664 168.661L198.582 152.796L133.282 167.596L67.9824 182.396L79.2644 194.587L193.664 168.661Z" fill="#C03F58"/>
<path d="M90.6445 206.9L113.445 231.552L158.917 280.703L178.748 216.747L188.695 184.669L90.6445 206.9ZM159.536 228.37L152.329 251.612L135.805 233.75L119.281 215.888L143.012 210.508L166.744 205.128L159.536 228.37Z" fill="#C03F58"/>
<path d="M1479.52 504.125C1482.35 482.54 1478.71 460.602 1469.07 441.083C1459.43 421.565 1444.22 405.344 1425.36 394.472C1406.5 383.6 1384.84 378.564 1363.12 380.002C1341.4 381.44 1320.59 389.288 1303.33 402.552C1286.06 415.816 1273.12 433.901 1266.14 454.519C1259.16 475.138 1258.44 497.365 1264.09 518.389C1269.74 539.412 1281.5 558.289 1297.87 572.631C1314.25 586.973 1334.51 596.136 1356.1 598.962C1385.04 602.751 1414.3 594.888 1437.45 577.103C1460.6 559.318 1475.73 533.068 1479.52 504.125Z" fill="#5E7ECF"/>
<path d="M1366.31 560.188C1339.43 556.665 1314.79 543.342 1297.12 522.773C1279.45 502.205 1269.99 475.839 1270.56 448.729C1264.31 463.668 1261.43 479.802 1262.12 495.982C1262.82 512.162 1267.08 527.988 1274.59 542.333C1282.11 556.678 1292.7 569.188 1305.61 578.97C1318.51 588.752 1333.42 595.565 1349.26 598.924C1365.11 602.283 1381.49 602.105 1397.26 598.402C1413.03 594.699 1427.78 587.563 1440.47 577.503C1453.16 567.442 1463.48 554.705 1470.68 540.2C1477.88 525.695 1481.8 509.78 1482.14 493.589C1472.8 515.852 1456.41 534.43 1435.48 546.464C1414.55 558.497 1390.25 563.32 1366.31 560.188Z" fill="#4A58A0"/>
<path d="M1482.45 512.867C1485.28 491.283 1481.64 469.345 1472 449.828C1462.36 430.31 1447.14 414.09 1428.28 403.219C1409.42 392.347 1387.76 387.312 1366.04 388.751C1344.32 390.189 1323.51 398.037 1306.25 411.3C1288.99 424.564 1276.05 442.648 1269.07 463.267C1262.08 483.885 1261.37 506.111 1267.02 527.134C1272.67 548.157 1284.42 567.033 1300.8 581.376C1317.18 595.718 1337.44 604.881 1359.02 607.708C1373.35 609.586 1387.92 608.622 1401.88 604.872C1415.83 601.122 1428.92 594.659 1440.38 585.852C1451.84 577.045 1461.46 566.067 1468.67 553.544C1475.89 541.021 1480.57 527.199 1482.45 512.867Z" fill="#7799E5"/>
<path d="M1451.73 503.509C1453.77 487.911 1451.14 472.058 1444.18 457.954C1437.21 443.849 1426.22 432.128 1412.59 424.271C1398.96 416.414 1383.31 412.775 1367.61 413.813C1351.92 414.852 1336.88 420.522 1324.41 430.106C1311.93 439.691 1302.58 452.759 1297.53 467.658C1292.49 482.558 1291.97 498.619 1296.05 513.811C1300.13 529.003 1308.63 542.644 1320.46 553.008C1332.3 563.373 1346.94 569.995 1362.54 572.038C1383.45 574.777 1404.6 569.096 1421.32 556.245C1438.05 543.393 1448.99 524.424 1451.73 503.509Z" fill="#435CA6"/>
<path d="M1452.18 508.908C1454.22 493.31 1451.6 477.456 1444.63 463.351C1437.66 449.247 1426.67 437.525 1413.04 429.668C1399.41 421.811 1383.76 418.172 1368.06 419.211C1352.37 420.25 1337.33 425.92 1324.86 435.505C1312.38 445.089 1303.03 458.158 1297.98 473.057C1292.93 487.957 1292.42 504.018 1296.5 519.211C1300.58 534.404 1309.08 548.045 1320.91 558.409C1332.75 568.774 1347.39 575.396 1362.99 577.439C1373.34 578.797 1383.86 578.101 1393.95 575.391C1404.04 572.682 1413.49 568.012 1421.78 561.648C1430.06 555.284 1437.01 547.351 1442.22 538.302C1447.44 529.252 1450.82 519.264 1452.18 508.908Z" fill="#E3F1F6"/>
<path d="M1329.39 532.014C1331.16 518.975 1336.12 506.573 1343.83 495.911C1351.55 485.249 1361.77 476.656 1373.6 470.895C1385.43 465.133 1398.51 462.382 1411.65 462.884C1424.8 463.386 1437.63 467.127 1448.98 473.774C1445.06 461.453 1438.19 450.271 1428.98 441.192C1419.77 432.114 1408.49 425.41 1396.12 421.661C1383.74 417.911 1370.64 417.227 1357.94 419.667C1345.24 422.108 1333.32 427.599 1323.22 435.67C1313.11 443.74 1305.12 454.146 1299.93 465.992C1294.74 477.837 1292.51 490.767 1293.43 503.666C1294.35 516.566 1298.39 529.048 1305.21 540.038C1312.03 551.027 1321.41 560.195 1332.56 566.749C1328.93 555.552 1327.85 543.684 1329.39 532.014Z" fill="#ABCBF1"/>
<path d="M1399.32 491.055C1394.67 489.117 1389.58 489.023 1384.05 490.773L1383.95 490.555C1387.36 487.577 1389.73 483.585 1390.71 479.163C1391.62 474.736 1391.06 470.132 1389.11 466.051C1388.08 463.566 1386.49 461.352 1384.46 459.583C1382.43 457.814 1380.02 456.537 1377.41 455.851C1373.52 454.828 1369.43 454.84 1365.55 455.886C1365.21 454.357 1364.71 452.866 1364.06 451.437C1361.51 445.764 1357.32 442.12 1354.7 443.298C1352.09 444.476 1352.03 450.031 1354.58 455.698C1355.14 456.947 1355.81 458.145 1356.58 459.276L1352.84 460.957C1352.51 459.629 1352.06 458.332 1351.49 457.083C1348.94 451.409 1344.75 447.767 1342.13 448.948C1339.5 450.129 1339.46 455.674 1342.01 461.348C1342.57 462.599 1343.24 463.797 1344.02 464.926L1337.03 468.067V468.072C1336.91 468.125 1336.78 468.178 1336.66 468.239C1330.61 470.956 1326.53 475.009 1327.56 477.289C1328.58 479.569 1334.32 479.206 1340.37 476.489L1340.74 476.316L1368.33 537.653C1368.2 537.708 1368.08 537.759 1367.95 537.815C1361.9 540.539 1357.83 544.592 1358.85 546.868C1359.87 549.144 1365.61 548.787 1371.66 546.068L1372.03 545.896L1379.02 542.756C1379.35 544.086 1379.8 545.383 1380.36 546.634C1382.92 552.302 1387.11 555.943 1389.73 554.769C1392.35 553.595 1392.4 548.037 1389.85 542.369C1389.29 541.119 1388.62 539.92 1387.85 538.787L1391.59 537.108C1391.92 538.437 1392.37 539.734 1392.93 540.983C1395.48 546.651 1399.67 550.294 1402.29 549.117C1404.91 547.94 1404.97 542.386 1402.41 536.717C1401.79 535.31 1401.02 533.97 1400.12 532.717C1404.41 529.935 1407.84 526.006 1410.01 521.376C1412.93 515.104 1412.9 508.64 1409.9 501.982C1407.5 496.626 1403.97 492.983 1399.32 491.055ZM1380.37 472.135C1382.34 476.515 1382.44 480.55 1380.66 484.24C1378.88 487.93 1375.49 490.899 1370.5 493.146L1361.17 497.346L1349.87 472.218L1360.34 467.505C1370.29 463.031 1376.97 464.574 1380.37 472.136V472.135ZM1400.57 518.575C1398.76 522.433 1395.18 525.567 1389.82 527.975L1377.45 533.538L1364.86 505.538L1375.33 500.823C1387.85 495.193 1396.17 496.973 1400.31 506.164C1402.3 510.582 1402.39 514.719 1400.57 518.575H1400.57Z" fill="#4A58A0"/>
<path d="M1397.06 492.179C1392.41 490.246 1387.32 490.153 1381.79 491.899L1381.69 491.681C1385.11 488.705 1387.47 484.713 1388.45 480.292C1389.36 475.863 1388.8 471.256 1386.85 467.175C1385.82 464.689 1384.23 462.474 1382.2 460.704C1380.17 458.934 1377.76 457.656 1375.15 456.97C1371.26 455.948 1367.17 455.961 1363.29 457.006C1362.95 455.475 1362.45 453.984 1361.8 452.555C1359.25 446.883 1355.06 443.241 1352.44 444.421C1349.82 445.601 1349.77 451.15 1352.32 456.821C1352.88 458.072 1353.55 459.271 1354.33 460.402L1350.59 462.081C1350.26 460.752 1349.8 459.456 1349.24 458.208C1346.69 452.537 1342.5 448.893 1339.88 450.07C1337.26 451.247 1337.21 456.8 1339.76 462.47C1340.32 463.72 1340.99 464.919 1341.76 466.052L1334.78 469.194C1334.65 469.249 1334.53 469.303 1334.4 469.358C1328.35 472.08 1324.28 476.134 1325.3 478.41C1326.33 480.686 1332.06 480.331 1338.11 477.61C1338.24 477.555 1338.36 477.496 1338.48 477.437L1366.08 538.777C1365.95 538.829 1365.82 538.883 1365.7 538.937C1359.65 541.66 1355.57 545.712 1356.6 547.987C1357.62 550.262 1363.36 549.906 1369.41 547.187C1369.53 547.135 1369.66 547.075 1369.78 547.02L1376.77 543.877C1377.1 545.205 1377.55 546.501 1378.12 547.749C1380.67 553.424 1384.86 557.065 1387.48 555.89C1390.09 554.715 1390.15 549.159 1387.59 543.49C1387.04 542.239 1386.37 541.04 1385.59 539.909L1389.33 538.227C1389.67 539.556 1390.12 540.853 1390.68 542.102C1393.23 547.774 1397.42 551.42 1400.04 550.241C1402.66 549.062 1402.72 543.509 1400.16 537.841C1399.53 536.434 1398.76 535.094 1397.87 533.841C1402.16 531.058 1405.59 527.13 1407.76 522.501C1410.68 516.231 1410.65 509.765 1407.65 503.101C1405.24 497.747 1401.71 494.107 1397.06 492.179ZM1378.11 473.262C1380.08 477.64 1380.18 481.676 1378.4 485.368C1376.62 489.061 1373.23 492.029 1368.24 494.273L1358.91 498.473L1347.61 473.345L1358.08 468.632C1368.03 464.155 1374.71 465.698 1378.11 473.262ZM1398.32 519.702C1396.5 523.564 1392.92 526.697 1387.57 529.102L1375.19 534.669L1362.59 506.669L1373.07 501.959C1385.59 496.331 1393.92 498.111 1398.05 507.301C1400.03 511.709 1400.12 515.842 1398.31 519.701L1398.32 519.702Z" fill="#5A7ED0"/>
<path d="M1488.83 516.036C1509.6 502.886 1533.81 496.191 1558.38 496.798C1582.96 497.404 1606.8 505.284 1626.9 519.442C1647 533.599 1662.44 553.399 1671.29 576.336C1680.13 599.273 1681.98 624.317 1676.59 648.302C1671.2 672.288 1658.82 694.136 1641.01 711.085C1623.2 728.033 1600.77 739.321 1576.55 743.521C1552.33 747.72 1527.4 744.643 1504.93 734.677C1482.46 724.712 1463.45 708.307 1450.3 687.536C1432.67 659.683 1426.82 625.967 1434.05 593.806C1441.28 561.644 1460.98 533.669 1488.83 516.036Z" fill="#EC8386"/>
<path d="M1487.45 659.721C1503.83 685.592 1529.18 704.506 1558.65 712.838C1588.11 721.17 1619.61 718.334 1647.12 704.872C1634.78 718.377 1619.62 728.993 1602.71 735.964C1585.81 742.936 1567.57 746.09 1549.3 745.203C1531.04 744.316 1513.19 739.409 1497.04 730.833C1480.89 722.256 1466.82 710.22 1455.86 695.585C1444.89 680.949 1437.29 664.074 1433.6 646.163C1429.9 628.252 1430.2 609.746 1434.48 591.965C1438.76 574.185 1446.91 557.567 1458.35 543.298C1469.79 529.03 1484.24 517.461 1500.66 509.417C1482.29 529.558 1471.04 555.179 1468.65 582.336C1466.27 609.494 1472.87 636.684 1487.45 659.721Z" fill="#96374E"/>
<path d="M1485.46 501.57C1506.23 488.422 1530.43 481.728 1555.01 482.335C1579.58 482.943 1603.42 490.824 1623.52 504.981C1643.62 519.139 1659.06 538.938 1667.91 561.875C1676.75 584.811 1678.59 609.855 1673.2 633.839C1667.81 657.823 1655.43 679.671 1637.63 696.618C1619.82 713.566 1597.39 724.854 1573.17 729.053C1548.95 733.252 1524.02 730.174 1501.55 720.209C1479.08 710.245 1460.07 693.84 1446.92 673.07C1438.19 659.278 1432.26 643.903 1429.47 627.82C1426.68 611.737 1427.09 595.263 1430.67 579.337C1434.25 563.412 1440.93 548.347 1450.33 535.004C1459.73 521.66 1471.67 510.299 1485.46 501.57Z" fill="#C03F58"/>
<path d="M1498.38 527.336C1513.39 517.833 1530.88 512.995 1548.64 513.433C1566.4 513.87 1583.63 519.564 1598.15 529.794C1612.68 540.024 1623.84 554.331 1630.23 570.906C1636.62 587.481 1637.96 605.578 1634.06 622.911C1630.17 640.243 1621.22 656.031 1608.35 668.279C1595.49 680.526 1579.28 688.684 1561.77 691.719C1544.27 694.754 1526.26 692.53 1510.02 685.33C1493.78 678.129 1480.04 666.274 1470.54 651.265C1457.8 631.138 1453.58 606.775 1458.8 583.534C1464.02 560.293 1478.26 540.078 1498.38 527.336Z" fill="#913449"/>
<path d="M1502.9 533.475C1517.91 523.972 1535.4 519.134 1553.16 519.571C1570.92 520.009 1588.15 525.703 1602.68 535.934C1617.2 546.164 1628.36 560.472 1634.75 577.047C1641.14 593.622 1642.48 611.72 1638.58 629.053C1634.69 646.386 1625.74 662.174 1612.87 674.422C1600.01 686.67 1583.8 694.827 1566.29 697.862C1548.79 700.896 1530.78 698.673 1514.54 691.471C1498.3 684.27 1484.56 672.415 1475.06 657.405C1468.75 647.439 1464.46 636.328 1462.45 624.707C1460.43 613.085 1460.73 601.181 1463.31 589.673C1465.9 578.164 1470.73 567.278 1477.52 557.636C1484.31 547.993 1492.94 539.783 1502.9 533.475Z" fill="#EB9291"/>
<path d="M1505.47 643.664C1501.97 630.143 1501.67 615.993 1504.6 602.337C1507.53 588.681 1513.6 575.896 1522.33 564.997C1531.06 554.097 1542.22 545.385 1554.91 539.551C1567.6 533.716 1581.47 530.921 1595.43 531.388C1583.59 524.638 1570.37 520.672 1556.77 519.788C1543.17 518.905 1529.55 521.129 1516.94 526.29C1504.32 531.452 1493.05 539.416 1483.97 549.58C1474.89 559.744 1468.25 571.84 1464.54 584.953C1460.83 598.066 1460.15 611.852 1462.55 625.266C1464.96 638.68 1470.39 651.37 1478.43 662.375C1486.46 673.38 1496.9 682.412 1508.95 688.786C1520.99 695.16 1534.33 698.709 1547.95 699.164C1537.51 693.233 1528.37 685.264 1521.07 675.73C1513.77 666.195 1508.47 655.29 1505.47 643.664Z" fill="#DA7577"/>
<path d="M1605.96 619.01L1618.96 610.583L1563.35 582.176L1507.73 553.769L1508.53 569.239L1605.96 619.01Z" fill="#532242"/>
<path d="M1509.33 584.854L1510.94 616.135L1514.14 678.505L1566.55 644.545L1592.84 627.512L1509.33 584.854ZM1545.84 641.386L1526.8 653.73L1525.63 631.068L1524.47 608.402L1544.68 618.724L1564.89 629.048L1545.84 641.386Z" fill="#532242"/>
<path d="M1605.97 611.248L1618.97 602.823L1563.35 574.414L1507.73 546.004L1508.53 561.475L1605.97 611.248Z" fill="#C03F58"/>
<path d="M1509.33 577.091L1510.94 608.373L1514.14 670.743L1566.55 636.782L1592.84 619.748L1509.33 577.091ZM1545.84 633.625L1526.8 645.966L1525.63 623.3L1524.47 600.635L1544.68 610.959L1564.89 621.283L1545.84 633.625Z" fill="#C03F58"/>
</svg>
