<svg xmlns="http://www.w3.org/2000/svg" viewBox="0 0 1169.41 151.84">
  <defs>
    <style>
      .cls-1 {
        fill: #ca404f;
      }

      .cls-2 {
        fill: #92384b;
      }

      .cls-3 {
        fill: #ecd0cf;
      }

      .cls-4 {
        fill: #dab2b5;
      }

      .cls-5 {
        fill: #c9949c;
      }

      .cls-6 {
        fill: #f4eae6;
      }
    </style>
  </defs>
  <g id="Layer_2" data-name="Layer 2">
    <path d="M226.44,44.38l16.68,47.71,15.17-47.71h38.27l-31.71,95.69H222.2L206.07,95.64h-2l5.75,15.72-10.12,28.71H157.41L125.7,44.38H164l15.31,47.71,16-47.71Z"/>
    <path d="M396.06,140.07H357.93L336.47,80.61l-10.25,27.61h17.63l11.48,31.85H277.55L315,44.38h42.92Z"/>
    <path d="M486.68,93.46v46.61H435.84c-32.26,0-51.54-21.46-51.54-49.35,0-27.34,23.79-49.07,51.26-49.07,28,0,51.12,20.23,51.12,49.34H449.09a13.3,13.3,0,0,0-13.53-12,13.6,13.6,0,0,0,0,27.2h13.53V95.92H439V93.46Z"/>
    <path d="M539.44,82.39,532.2,69.67l14.48-25.29h41.56l-39.51,64.93v30.76H513.19V109.59L473.55,44.38h41.7l22.14,38Z"/>
    <path d="M680.77,44.38V95.51c0,31.57-22.83,47.29-45.66,47.29s-45.65-15.72-45.65-47.29V44.38H625V95.51c0,7.65,5.06,11.48,10,11.48s10-3.83,10-11.48V44.38Z"/>
    <path d="M711.65,104.12h20l-1.5-2.33H720c-6.16-5.87-8.48-14.49-8.48-22.69,0-24.33,14.35-34.72,45.11-34.72H808V80.61H761.81c-16.26,0-18,23.65-.13,23.65,14.62,0,13.94-18.59,2.87-21.33h32.39A30.24,30.24,0,0,1,808.7,107.4c0,24.61-17,32.67-44.15,32.67h-52.9Z"/>
    <path d="M909,44.38,925.7,92.09l15.17-47.71h38.27l-31.71,95.69H904.78L888.65,95.64h-2l5.74,15.72-10.11,28.71H840L808.28,44.38h38.27l15.31,47.71,16-47.71Z"/>
    <path d="M1078.64,140.07h-38.13L1019,80.61l-10.25,27.61h17.64l11.48,31.85H960.13l37.46-95.69h42.92Z"/>
    <path d="M1080,44.38h45.52c55.63,0,61.1,81.34.68,81.34H1118V92.5h8.2c10.39,0,10.53-13.67,0-13.67h-10.66v61.24H1080Z"/>
    <g>
      <path class="cls-1" d="M110.66,99.87c0,28.7-24.77,52-55.33,52S0,128.57,0,99.87c0-3.72,0-23.14,8.66-39C16.92,45.7,31.42,35.58,31.42,35.58s.2,4.45.77,9.12a27.57,27.57,0,0,0,1.11,4.67c.07-4,1.58-13.64,7.66-25.21C48,10.79,60.74,0,60.74,0a128.55,128.55,0,0,0,.35,19.71c1,9,4.84,17.39,5.92,18.18a29.78,29.78,0,0,1,1-5.65A20.39,20.39,0,0,1,71,26.81c.24-.93.49,7.17,3.35,12.18C81,50.66,97.83,65.92,101.76,71.59A49.49,49.49,0,0,1,110.66,99.87Z"/>
      <path class="cls-2" d="M59,145.5c-30.56,0-55.33-23.27-55.33-52,0-3.56,0-21.44,7.55-36.87-.89,1.35-1.73,2.74-2.51,4.19C0,76.73,0,96.15,0,99.87c0,28.7,24.77,52,55.33,52,22.48,0,41.83-12.59,50.49-30.67C96,135.78,78.7,145.5,59,145.5Z"/>
      <path class="cls-2" d="M32.23,44.85a26.88,26.88,0,0,0,1.12,4.66c.06-3.87,1.78-13.73,7.25-24.66-1,1.59-2.33,4.11-3.22,5.79A75.86,75.86,0,0,0,32.06,43.4C32.12,43.88,32.17,44.36,32.23,44.85Z"/>
      <path class="cls-3" d="M65.37,83.72c-10.82,13.23-26,21.06-22.29,24.69,3.9,3.81,26.92,16.23,44.66-2,9.37-9.6,8.54-24.69,3.33-33.88,0,0,3.15-9.09,3-9.75-.55-2.21-11.64-14-13.21-14.71a102.27,102.27,0,0,1-3.22,14.8C76.17,67.34,71.76,75.9,65.37,83.72Z"/>
      <path class="cls-4" d="M71.61,89c-7,8.52-16.08,14.29-13.37,16.26s12.54,7,24-4.64c8.54-8.76,4.94-20.32,2.22-22.29S77.45,81.87,71.61,89Z"/>
      <path class="cls-5" d="M74.34,93.93c-2.83,3.91-4,7.86-2.71,8.82s4.7-1.43,7.53-5.34,4-7.86,2.71-8.82S77.17,90,74.34,93.93Z"/>
      <path class="cls-6" d="M74.44,39a17,17,0,0,1-1.11-2.4A73.85,73.85,0,0,1,54.13,55.8c-9.55,6.66-14.88,11.6-17.54,26-1.41,7.59-21.86-3.74-28.48,5.93C5.29,91.84,5.48,96,3.93,98.59c.5,11.87,8.68,23.3,8.68,23.3-1.39-2-.44-13.93,4.24-21.84C21.31,92.53,36.81,92,44,84c7.54-8.32,7.29-15.69,12.65-22.32,7.58-9.36,17.51-17.64,23-15A65.08,65.08,0,0,1,74.44,39Z"/>
      <path class="cls-6" d="M110.66,99.87c-.5,3.48-4.29,10.86-9.19,12-8.94,2.06-12.58-3.45-18.27,2.37a34.79,34.79,0,0,1-34.58,8.29c-11-3.43-23.53,7.49-31.43,5.11,6.16,8,20.44,14,22.06,14.48-1.19-1.35-4.76-6.81-1.31-8.59,6.58-3.39,16.38,3.21,23.41,1.24,8.41-2.37,12-9.31,16.44-12.07,2.22-1.39,14-10.86,28.11-1.7A49.11,49.11,0,0,0,110.66,99.87Z"/>
    </g>
  </g>
</svg>
